{
	"asset":{
		"generator":"Khronos glTF Blender I/O v4.2.57",
		"version":"2.0"
	},
	"extensionsUsed":[
		"KHR_texture_transform"
	],
	"extensionsRequired":[
		"KHR_texture_transform"
	],
	"scene":0,
	"scenes":[
		{
			"name":"Scene",
			"nodes":[
				0
			]
		}
	],
	"nodes":[
		{
			"mesh":0,
			"name":"Stand3",
			"rotation":[
				0.7071068286895752,
				0,
				0,
				0.7071068286895752
			],
			"scale":[
				0.05000000074505806,
				0.05000000074505806,
				0.05000000074505806
			],
			"translation":[
				0,
				-0.004729025531560183,
				0.0018161567859351635
			]
		}
	],
	"materials":[
		{
			"doubleSided":true,
			"name":"Mat.1",
			"normalTexture":{
				"extensions":{
					"KHR_texture_transform":{
						"offset":[
							0,
							-1
						]
					}
				},
				"index":0
			},
			"pbrMetallicRoughness":{
				"baseColorTexture":{
					"extensions":{
						"KHR_texture_transform":{
							"offset":[
								0,
								-1
							]
						}
					},
					"index":1
				},
				"metallicFactor":0
			}
		}
	],
	"meshes":[
		{
			"name":"Mesh",
			"primitives":[
				{
					"attributes":{
						"POSITION":0,
						"NORMAL":1,
						"TEXCOORD_0":2
					},
					"indices":3,
					"material":0
				}
			]
		}
	],
	"textures":[
		{
			"sampler":0,
			"source":0
		},
		{
			"sampler":0,
			"source":1
		}
	],
	"images":[
		{
			"mimeType":"image/png",
			"name":"Stand3Norm",
			"uri":"Stand3Norm.png"
		},
		{
			"mimeType":"image/png",
			"name":"Stand3Diff",
			"uri":"Stand3Diff.png"
		}
	],
	"accessors":[
		{
			"bufferView":0,
			"componentType":5126,
			"count":4880,
			"max":[
				222.0000457763672,
				222.00003051757812,
				11.982669830322266
			],
			"min":[
				-222.0000457763672,
				-222.00003051757812,
				-51.84868240356445
			],
			"type":"VEC3"
		},
		{
			"bufferView":1,
			"componentType":5126,
			"count":4880,
			"type":"VEC3"
		},
		{
			"bufferView":2,
			"componentType":5126,
			"count":4880,
			"type":"VEC2"
		},
		{
			"bufferView":3,
			"componentType":5123,
			"count":14442,
			"type":"SCALAR"
		}
	],
	"bufferViews":[
		{
			"buffer":0,
			"byteLength":58560,
			"byteOffset":0,
			"target":34962
		},
		{
			"buffer":0,
			"byteLength":58560,
			"byteOffset":58560,
			"target":34962
		},
		{
			"buffer":0,
			"byteLength":39040,
			"byteOffset":117120,
			"target":34962
		},
		{
			"buffer":0,
			"byteLength":28884,
			"byteOffset":156160,
			"target":34963
		}
	],
	"samplers":[
		{
			"magFilter":9729,
			"minFilter":9987
		}
	],
	"buffers":[
		{
			"byteLength":185044,
			"uri":"untitled.bin"
		}
	]
}
