{
	"asset":{
		"generator":"Khronos glTF Blender I/O v4.2.57",
		"version":"2.0"
	},
	"extensionsUsed":[
		"KHR_materials_specular",
		"KHR_texture_transform"
	],
	"extensionsRequired":[
		"KHR_texture_transform"
	],
	"scene":0,
	"scenes":[
		{
			"name":"Scene",
			"nodes":[
				0
			]
		}
	],
	"nodes":[
		{
			"mesh":0,
			"name":"StandPink",
			"scale":[
				0.09999999403953552,
				0.09999999403953552,
				0.09999999403953552
			],
			"translation":[
				0,
				-0.0652480274438858,
				0
			]
		}
	],
	"materials":[
		{
			"alphaMode":"BLEND",
			"doubleSided":true,
			"extensions":{
				"KHR_materials_specular":{
					"specularColorFactor":[
						2.0,
						2.0,
						2.0
					]
				}
			},
			"name":"Mat.1",
			"normalTexture":{
				"extensions":{
					"KHR_texture_transform":{
						"offset":[
							0,
							-1
						]
					}
				},
				"index":0
			},
			"pbrMetallicRoughness":{
				"baseColorTexture":{
					"extensions":{
						"KHR_texture_transform":{
							"offset":[
								0,
								-1
							]
						}
					},
					"index":1
				},
				"metallicFactor":0,
				"roughnessFactor":0.4343145787715912
			}
		}
	],
	"meshes":[
		{
			"name":"Mesh",
			"primitives":[
				{
					"attributes":{
						"POSITION":0,
						"NORMAL":1,
						"TEXCOORD_0":2
					},
					"indices":3,
					"material":0
				}
			]
		}
	],
	"textures":[
		{
			"sampler":0,
			"source":0
		},
		{
			"sampler":0,
			"source":1
		}
	],
	"images":[
		{
			"mimeType":"image/png",
			"name":"StandPinkNormal",
			"uri":"StandPinkNormal.png"
		},
		{
			"mimeType":"image/png",
			"name":"StandPinkDiff",
			"uri":"StandPinkDiff.png"
		}
	],
	"accessors":[
		{
			"bufferView":0,
			"componentType":5126,
			"count":4967,
			"max":[
				2.18943190574646,
				0.6000000834465027,
				2.189432144165039
			],
			"min":[
				-2.18943190574646,
				0,
				-2.189432144165039
			],
			"type":"VEC3"
		},
		{
			"bufferView":1,
			"componentType":5126,
			"count":4967,
			"type":"VEC3"
		},
		{
			"bufferView":2,
			"componentType":5126,
			"count":4967,
			"type":"VEC2"
		},
		{
			"bufferView":3,
			"componentType":5123,
			"count":28800,
			"type":"SCALAR"
		}
	],
	"bufferViews":[
		{
			"buffer":0,
			"byteLength":59604,
			"byteOffset":0,
			"target":34962
		},
		{
			"buffer":0,
			"byteLength":59604,
			"byteOffset":59604,
			"target":34962
		},
		{
			"buffer":0,
			"byteLength":39736,
			"byteOffset":119208,
			"target":34962
		},
		{
			"buffer":0,
			"byteLength":57600,
			"byteOffset":158944,
			"target":34963
		}
	],
	"samplers":[
		{
			"magFilter":9729,
			"minFilter":9987
		}
	],
	"buffers":[
		{
			"byteLength":216544,
			"uri":"untitled.bin"
		}
	]
}
