{
	"asset":{
		"generator":"Khronos glTF Blender I/O v4.2.57",
		"version":"2.0"
	},
	"scene":0,
	"scenes":[
		{
			"name":"Scene",
			"nodes":[
				0
			]
		}
	],
	"nodes":[
		{
			"mesh":0,
			"name":"StandBear",
			"rotation":[
				0.7071068286895752,
				0,
				0,
				0.7071068286895752
			],
			"translation":[
				0,
				-0.014836586080491543,
				0
			]
		}
	],
	"materials":[
		{
			"doubleSided":true,
			"name":"Material",
			"normalTexture":{
				"index":0
			},
			"pbrMetallicRoughness":{
				"baseColorTexture":{
					"index":1
				},
				"metallicFactor":0.5,
				"roughnessFactor":0.6363636255264282
			}
		}
	],
	"meshes":[
		{
			"name":"Mesh",
			"primitives":[
				{
					"attributes":{
						"POSITION":0,
						"NORMAL":1,
						"TEXCOORD_0":2
					},
					"indices":3,
					"material":0
				}
			]
		}
	],
	"textures":[
		{
			"sampler":0,
			"source":0
		},
		{
			"sampler":0,
			"source":1
		}
	],
	"images":[
		{
			"mimeType":"image/png",
			"name":"StandTexMormal",
			"uri":"StandTexMormal.png"
		},
		{
			"mimeType":"image/png",
			"name":"StandTexDiffuse",
			"uri":"StandTexDiffuse.png"
		}
	],
	"accessors":[
		{
			"bufferView":0,
			"componentType":5126,
			"count":4852,
			"max":[
				1.5000088214874268,
				1.0801602602005005,
				1.5957672595977783
			],
			"min":[
				-1.5000686645507812,
				-1.0800081491470337,
				1.171522617340088
			],
			"type":"VEC3"
		},
		{
			"bufferView":1,
			"componentType":5126,
			"count":4852,
			"type":"VEC3"
		},
		{
			"bufferView":2,
			"componentType":5126,
			"count":4852,
			"type":"VEC2"
		},
		{
			"bufferView":3,
			"componentType":5123,
			"count":20544,
			"type":"SCALAR"
		}
	],
	"bufferViews":[
		{
			"buffer":0,
			"byteLength":58224,
			"byteOffset":0,
			"target":34962
		},
		{
			"buffer":0,
			"byteLength":58224,
			"byteOffset":58224,
			"target":34962
		},
		{
			"buffer":0,
			"byteLength":38816,
			"byteOffset":116448,
			"target":34962
		},
		{
			"buffer":0,
			"byteLength":41088,
			"byteOffset":155264,
			"target":34963
		}
	],
	"samplers":[
		{
			"magFilter":9729,
			"minFilter":9987
		}
	],
	"buffers":[
		{
			"byteLength":196352,
			"uri":"untitled.bin"
		}
	]
}
